<?xml version="1.0" encoding="utf-8"?>
<!-- Generator: Adobe Illustrator 25.2.1, SVG Export Plug-In . SVG Version: 6.00 Build 0)  -->
<svg version="1.1" id="Слой_1" xmlns="http://www.w3.org/2000/svg" xmlns:xlink="http://www.w3.org/1999/xlink" x="0px" y="0px"
	 viewBox="0 0 1000 1000" style="enable-background:new 0 0 1000 1000;" xml:space="preserve">
<style type="text/css">
	.st0{fill:#C80620;}
</style>
<g>
	<path class="st0" d="M797.1,723.7H201.9c-9.2,0-16.7-7.5-16.8-16.7l-0.8-112.3c-18.5-3.4-50.7-11.8-82.5-32.8
		c-44.2-29.1-96-88.2-91.5-204.8c0-0.5,0.1-0.9,0.1-1.4c9-74.8,34.6-130,76.1-164.1c31.4-25.9,70.9-39,117.3-39
		c28.9,0,53.9,5.2,69.1,9.3c6.3-13.6,17.8-34.8,35.8-56.8c39.8-48.4,93.1-78,154.2-85.4c12.6-1.5,25.2-2.3,37.3-2.3
		c90.9,0,149.4,43.6,182.5,80.1c22.5,24.8,36.4,49.6,43.8,65c15.5-4.6,41-10.5,70.6-10.5c39.5,0,74.5,10.3,104.1,30.6
		c38.2,26.2,66.1,68.6,83.1,126c0.2,0.7,0.4,1.4,0.5,2.1c13.5,84.1,0.4,152.5-39,203.1c-42.6,54.7-103.7,72.7-132,78.4v114.7
		C813.9,716.2,806.3,723.7,797.1,723.7z M218.5,690.1h561.7V577.8c0-8.7,6.6-16,15.3-16.7c0.7-0.1,77.3-7.9,124-68.2
		c33.1-42.7,44-101.9,32.3-175.8c-26.1-87.3-78.2-131.5-154.7-131.5c-40.6,0-73.1,13.2-73.4,13.3c-4.3,1.8-9.1,1.7-13.3-0.2
		s-7.5-5.4-9-9.7c-0.1-0.3-13-35.5-44.5-69.9C615.6,74,562.8,51,500.2,51c-10.8,0-21.9,0.7-33.2,2.1
		C340.2,68.5,298.9,186.7,298.5,187.9c-1.5,4.3-4.6,7.9-8.7,9.8c-4.1,2-8.9,2.1-13.1,0.5c-0.3-0.1-32.7-12-72.9-12
		c-92.1,0-145.9,58.2-159.9,172.8c-2.9,80.1,22.4,138.7,75.3,174c40.3,26.9,82.5,30.1,83,30.2c8.8,0.6,15.6,7.9,15.7,16.7
		L218.5,690.1z"/>
	<path class="st0" d="M594,982.6c-144.7,0-340.1-1.6-342.1-1.6c-2.2,0-4.3-0.5-6.3-1.3c-2.5-1.1-62.4-26.5-62.4-89V758
		c0-9.3,7.5-16.8,16.8-16.8h594.3c9.3,0,16.8,7.5,16.8,16.8v133c0.4,6.9,1.7,43.9-19.8,68.7c-11,12.7-26.3,20-44.3,21.2
		C730.8,982,679.3,982.6,594,982.6z M255.9,947.4c27.6,0.2,204.5,1.6,338.2,1.6c84.6,0,135.3-0.5,150.8-1.6c9-0.6,15.9-3.8,21-9.6
		c11.3-13,12.3-36.9,11.7-45c0-0.4,0-0.9,0-1.3V774.8H216.9v115.9C216.9,925,246.7,942.8,255.9,947.4z"/>
</g>
</svg>
